<?xml version="1.0" standalone="no"?>
<!DOCTYPE svg PUBLIC "-//W3C//DTD SVG 20010904//EN"
 "http://www.w3.org/TR/2001/REC-SVG-20010904/DTD/svg10.dtd">
<svg version="1.0" xmlns="http://www.w3.org/2000/svg"
 width="700.000000pt" height="700.000000pt" viewBox="0 0 700.000000 700.000000"
 preserveAspectRatio="xMidYMid meet">
<metadata>
Created by potrace 1.14, written by Peter Selinger 2001-2017
</metadata>
<g transform="translate(0.000000,700.000000) scale(0.100000,-0.100000)"
fill="#000000" stroke="none">
<path d="M3388 6645 c-2 -2 -19 -7 -37 -10 -18 -3 -65 -17 -105 -31 -39 -14
-82 -29 -96 -33 -50 -16 -187 -90 -245 -133 -163 -122 -300 -308 -367 -498
-19 -54 -23 -70 -33 -120 -3 -14 -7 -36 -10 -50 -4 -14 -9 -78 -12 -142 -11
-239 52 -456 199 -685 90 -140 104 -190 82 -296 -47 -229 -249 -399 -491 -414
-152 -10 -276 31 -365 120 -87 87 -117 174 -113 327 5 146 57 287 199 531 67
117 100 297 75 409 -38 168 -176 295 -335 308 -154 12 -276 -71 -291 -198 -11
-91 44 -180 111 -180 18 0 17 2 -6 28 -76 81 -62 171 34 212 89 38 160 28 250
-37 56 -41 72 -80 70 -177 -2 -104 -25 -159 -155 -386 -161 -279 -207 -415
-209 -610 -1 -99 16 -176 60 -280 71 -171 139 -242 315 -330 103 -51 128 -80
111 -127 -23 -68 -189 -136 -327 -135 -154 1 -252 107 -387 422 -54 125 -130
270 -199 375 -96 148 -285 280 -460 322 -197 46 -370 5 -508 -121 -89 -81
-129 -170 -139 -309 -7 -96 3 -143 46 -210 41 -65 90 -87 188 -83 63 3 77 7
110 33 38 31 86 93 77 101 -2 3 -30 -8 -62 -23 -132 -62 -239 4 -235 144 1 38
10 72 29 110 26 51 34 59 105 95 71 36 85 39 170 42 79 3 104 -1 163 -22 218
-77 363 -257 469 -579 65 -198 115 -324 145 -365 109 -153 156 -194 268 -242
56 -24 168 -52 233 -59 65 -7 190 28 314 87 103 48 125 53 149 27 44 -51 15
-80 -123 -122 -52 -16 -117 -41 -145 -56 -184 -100 -330 -289 -369 -478 -4
-15 -8 -37 -11 -50 -13 -61 -7 -158 16 -267 13 -62 89 -290 105 -315 34 -54
56 -211 40 -293 -14 -74 -86 -150 -182 -194 -71 -31 -199 -31 -272 1 -139 62
-199 252 -146 468 19 78 26 308 12 387 -5 28 -27 88 -49 133 -61 127 -170 229
-314 294 -43 19 -68 23 -170 23 -112 1 -124 -1 -176 -27 -68 -33 -132 -95
-179 -173 -34 -57 -35 -60 -35 -169 0 -99 3 -114 25 -154 27 -48 111 -114 138
-109 13 3 9 11 -19 43 -56 65 -59 70 -65 129 -5 48 -2 64 19 109 51 103 132
158 231 158 58 0 125 -15 170 -38 69 -36 140 -135 166 -232 17 -66 16 -216 -4
-308 -2 -11 -8 -43 -12 -70 -3 -26 -8 -57 -10 -68 -3 -11 -4 -63 -5 -116 -1
-356 204 -574 551 -584 188 -5 349 45 461 143 63 57 149 188 180 277 35 101
34 270 -3 405 -14 52 -29 111 -32 130 -3 19 -8 46 -11 60 -9 44 -7 126 5 184
27 130 166 245 305 251 118 6 212 -52 267 -163 30 -60 33 -76 34 -159 1 -51
-4 -121 -12 -155 -16 -75 -11 -221 9 -293 21 -74 58 -147 142 -275 243 -376
297 -480 340 -654 27 -111 24 -201 -11 -268 -27 -52 -134 -153 -188 -176 -40
-18 -68 -22 -156 -22 -103 0 -110 1 -178 35 -130 65 -187 159 -185 307 0 69 5
85 41 160 23 46 68 119 101 163 33 44 77 112 97 152 31 61 36 81 37 141 0 64
-2 73 -39 127 -52 78 -121 117 -203 117 -37 0 -69 -6 -92 -18 l-34 -19 55 -3
c78 -3 96 -9 125 -38 43 -43 56 -70 60 -125 3 -44 -2 -65 -25 -114 -24 -51
-54 -91 -176 -238 -52 -63 -106 -156 -124 -213 -57 -187 11 -418 168 -565 71
-67 120 -94 242 -134 146 -49 355 -42 480 14 206 93 334 319 331 586 -1 130
-15 175 -138 454 -128 288 -151 364 -149 501 1 95 4 109 28 152 33 55 103 119
163 148 105 51 301 60 391 19 160 -74 224 -155 232 -295 4 -77 -17 -193 -48
-259 -23 -50 -48 -112 -55 -135 -9 -31 -46 -120 -86 -208 -85 -184 -108 -275
-103 -409 1 -48 5 -97 7 -108 22 -88 31 -116 38 -121 5 -3 9 -12 9 -20 0 -26
71 -127 130 -184 74 -73 216 -142 340 -166 40 -8 212 -8 250 0 130 26 260 91
343 171 106 102 156 209 163 352 3 71 -1 95 -26 172 -40 123 -75 177 -228 346
-127 142 -145 245 -57 338 34 36 64 47 126 47 54 0 63 11 22 29 -123 56 -270
-18 -320 -161 -25 -75 -19 -142 22 -224 20 -41 46 -86 59 -101 44 -53 122
-178 145 -231 81 -194 -9 -394 -212 -469 -60 -22 -178 -18 -262 8 -60 18 -78
30 -131 85 -43 44 -67 79 -78 112 -58 174 11 407 209 712 146 226 233 382 259
470 22 72 28 225 12 322 -7 42 -12 117 -10 166 2 116 34 188 109 244 152 115
365 44 458 -152 44 -92 41 -158 -13 -370 -66 -258 -61 -382 20 -527 33 -60 89
-134 125 -166 191 -171 545 -212 778 -90 126 66 213 182 254 335 24 94 23 340
-3 430 -12 42 -16 69 -21 158 -7 116 11 196 60 273 68 105 159 157 276 157
100 0 139 -23 215 -124 57 -76 37 -226 -39 -293 -36 -32 -16 -36 33 -7 58 35
102 125 106 220 11 226 -140 383 -370 384 -147 0 -339 -107 -446 -250 -104
-139 -130 -341 -74 -590 7 -31 11 -104 9 -167 -3 -135 -23 -192 -87 -251 -57
-52 -102 -66 -216 -66 -84 -1 -102 3 -152 27 -67 33 -123 94 -140 151 -6 23
-12 77 -12 121 0 71 6 98 56 245 62 182 84 266 95 355 30 264 -35 448 -226
635 -66 65 -143 108 -271 150 -148 50 -181 80 -135 126 29 29 35 28 135 -19
116 -53 201 -78 295 -84 77 -5 97 -3 135 14 25 11 62 26 83 33 94 30 191 99
254 182 59 76 96 155 152 319 126 373 217 542 350 642 195 148 419 154 563 14
99 -96 115 -231 37 -320 -44 -52 -108 -56 -185 -13 -59 33 -68 33 -50 -3 20
-38 82 -91 109 -92 77 -5 116 -3 142 5 46 14 110 66 141 115 26 41 27 51 27
150 0 100 -2 112 -33 176 -61 129 -205 243 -345 275 -69 16 -198 13 -270 -5
-77 -20 -193 -75 -259 -122 -71 -52 -169 -155 -222 -235 -47 -70 -146 -271
-209 -423 -67 -164 -150 -271 -242 -316 -98 -47 -294 -18 -383 58 -77 66 -57
108 88 183 248 127 375 334 374 605 -2 179 -52 323 -212 600 -127 220 -172
335 -164 418 10 103 110 191 234 204 66 7 111 -16 140 -71 29 -53 22 -98 -21
-145 -16 -18 -28 -36 -25 -38 12 -12 62 16 89 50 82 101 12 264 -134 312 -46
16 -130 21 -175 11 -87 -18 -197 -107 -248 -199 -52 -93 -66 -154 -62 -260 5
-111 26 -175 101 -307 126 -221 165 -331 170 -480 7 -197 -60 -318 -220 -394
-80 -39 -132 -50 -227 -48 -212 5 -396 117 -483 296 -39 80 -46 108 -46 185 0
77 24 139 87 223 63 83 109 174 153 301 34 97 38 112 48 207 29 250 -23 495
-149 695 -123 194 -323 360 -522 432 -78 28 -228 51 -331 51 -57 1 -105 -1
-107 -3z"/>
</g>
</svg>
